<?xml version="1.0" encoding="utf-8"?>
<svg xmlns="http://www.w3.org/2000/svg" viewBox="0 0 301 367"><g transform="matrix(0.945343, 0, 0, 1, -90.612703, -47.716283)" id="object-0"><path class="cls-4" d="M282.67,106.1l-.91-2.36c.07-1.13,10.25-5.38,10.83-8.07-2-.07-3.98.58-5.85,1.18-3.38,1.09-8.17,5.4-9.23.16,6.16-3.76,10.97-7.52,15.59-13.1,1.53-1.85,2.72-4.27,4.18-5.98s2.85-3.49,4.94-1.02c3.96,4.7-.67,15.59-4.14,19.8-2.96,3.58-10.75,9.01-15.39,9.37h-.02v.02Z" style="fill: rgb(204, 130, 66);"/><g><g><g><g><path class="cls-4" d="M243.8,73.62c.36,6.7-1.62,12.41-3.71,16.53-.13,1.02-.25,2.03-.4,3.05-.11,1.09-.2,2.18-.31,3.27,3.85-.85,9.68-1.69,16.66-.96,6.92.71,18.78,1.93,25.6,10.26,6.49,7.94,2.67,15.39,10.57,21.42,2.31,1.76,4.92,2.89,7.81,6.49,2.54,3.18,3.8,6.43,4.49,8.74.27,11.92-3.22,18.42-6.43,22.16-5.36,6.19-11.84,6.9-13.04,13.1-.93,4.83,2.31,7.97.29,13.33-1.04,2.74-2.91,4.61-4.29,5.74-6.07,2.13-11.41,3.2-15.42,3.76-7.36,1.05-13.04.82-17.09.64-3.43-.15-8.19-.38-14.31-1.69-4.38-.93-8.01-2.09-10.72-3.07-1.16-.69-2.78-1.78-4.41-3.42-3.62-3.67-4.92-7.74-5.5-9.63-2.91-9.41-1.07-23.78-.05-31.3,2.98-22.24,3.36-24.23,3.65-30.32.53-10.86.74-16.44-1.27-23.6-1.54-5.5-3.09-7.32-3.36-12.64-.11-2.16-.4-9.74,4.41-17.04,1.87-2.85,4.31-6.56,9.1-8.17,4.12-1.38,10.05-1.25,13.92,2.42,3.27,3.09,3.67,7.27,3.87,10.92l-.04.02h-.02Z" style="fill: rgb(204, 130, 66);"/><g><path class="cls-5" d="M218.96,238.38c-4.36,3.29-8.74,6.58-13.1,9.85-4.98-9.72-7.56-17.57-7.41-20.91.07-1.8.6-3.34.6-3.34.22-.64.98-2.74,2.98-4.72,1.38-1.36,3.56-2.85,4.96-2.98,3.8-.35,8.88,8.61,11.99,22.07l-.02.04h0Z" style="fill: rgb(21, 181, 217);"/><path class="cls-11" d="M224.05,196.64c9.39,2.45,17.66,2.18,23.38,1.47,7.32,0,14.77-.04,22.33-.18,4.8-.09,9.56-.2,14.26-.35,1.51,1.34,3.02,2.71,4.52,4.05.73,3.83,1.47,7.65,2.2,11.48-1.54,1.14-3.09,2.29-4.63,3.42-1.54,1.42-3.96,3.22-7.25,4.18-4.76,1.38-8.16.05-13.81-.87-1.96-.33-.44.02-18.38-.64-5.4-.2-11.26-.44-18.44-1.85-1.74-.35-4.65-.96-7.94-2.78-2.51-1.38-5.45-3.02-6.88-6.27-.87-1.98-.78-3.81-.6-7.47.16-3.29.67-5.98,1.11-7.83,2.87,1.33,6.27,2.63,10.14,3.63h0Z" style="fill: rgb(13, 167, 211);"/><path class="cls-6" d="M212.3,204.1c.74,3.76-3.11,2.58-2.51,6.9l10.83,27.99c-.53.47-1.31,1.14-2.27,1.94-1.87,1.56-2.34,1.89-3.45,2.8,0,0-6.99,5.81-8.34,6.52-.53.27-.98.33-1.56.25l-9.28-25.4c2.8-4.29,7.43-7.08,11.12-10.57-.18-4.38-.38-10.26,5.45-10.43l.02-.02v.02ZM207.52,218.84c-1.56,1.07-1.98,1.58-4.8,4.01-.47.4-1,.85-1.6,1.56-.65.78-.98,1.18-1.11,1.76-.13.62.05,1.2.4,2.33.27.85.54,1.47.54,1.47.73,1.6.96,2.94,2.11,6.34,1.83,5.4,1.74,3.42,3.11,6.96.13.33.56,1.51,1.14,1.51.22,0,.35-.16.64-.44.58-.51.89-.6,1.51-.98,1.74-1.13,2.83-2.82,5.49-5.1.38-.33,1-.84,1.02-1.58,0-.31-.09-.47-.42-1.42-.25-.74.05.07-.44-1.34-1.62-4.63-2.38-6.63-2.38-6.63-.25-.67-1.36-3.52-2.34-5.61-.29-.64-.6-1.22-.93-1.8-.4-.71-.76-1.27-1.04-1.69-.2.13-.53.35-.93.62l.02.04h0Z" style="fill: rgb(234, 176, 32);"/></g></g><path class="cls-16" d="M230.19,173.18c1.42.74,5.27,3.03,6.69,7.39.4,1.22,1.24,3.78-.04,5.78-.58.93-1.45,1.49-1.76,1.69-1.44.91-2.85.98-3.47,1.02-2.98.13-5.16-1.63-5.76-2.14-.73-1.11-1.94-3.36-2.03-6.34,0-.44-.05-2.14.64-4.21.42-1.29.73-2.2,1.58-2.83,1.58-1.18,3.78-.47,4.18-.35h-.03Z" style="fill: rgb(86, 43, 27);"/></g><path class="cls-13" d="M265.21,153.29c-1.05.62-2.33.36-2.89-.47-.42-.6-.42-1.44-.04-2.14.78-1.02,2.25-1.07,3.05-.29.74.74.74,2.09-.13,2.91h.01Z" style="fill: rgb(38, 12, 9);"/><path class="cls-8" d="M207.41,218.49c.47-.36,1.14-.82,1.14-.82.09.13.2.31.33.54,0,0,.2.33.38.65,2.02,3.65,3.03,5.47,7.05,18.42h0c-5.09,5.03-7.56,6.87-7.56,6.87-.71.53-1.27.91-1.58,1.11-.29-.47-.73-1.22-1.25-2.16-.49-.91-3.69-6.79-5.34-13.48,0,0,0-.02-.94-3.89h0c2.22-2.11,4.49-4.14,6.67-6.29.07-.07.31-.35,1.09-.94l.02-.02h-.01ZM202.03,232.04c.84,2.34.69,2.05,1.16,3.34.89,2.42,1.74,4.25,2.14,5.07.51,1.05,1.16,2.36,2,3.83,1.47-1,3.03-2.16,4.63-3.54,1.45-1.24,2.74-2.45,3.87-3.62-.6-1.63-1.54-4.2-2.71-7.38-1.22-3.32-1.74-4.7-2.56-6.63-.84-1.93-1.6-3.49-2.16-4.6-.65.54-1.65,1.4-2.92,2.42-1.6,1.29-1.63,1.33-2.11,1.74-1.13,1-4.25,4.27-3.22,3.18,0,0,.42,1.67.82,3.05.13.42.24.85,1.04,3.12h.02v.02Z" style=""/><path class="cls-8" d="M279.13,119.65c.96.44,1.33,1.4,1.44,1.65.49,1.27.33,3.31-1.13,4.11-1.05.58-2.36.27-3.22-.38-1.22-.96-1.67-2.89-.74-4.25.8-1.16,2.42-1.67,3.63-1.13,0,0,.02,0,.02,0Z" style=""/><path class="cls-12" d="M254.75,118.83c1.31-1.67,3.76-1.98,5.47-.82,1.98,1.36,2.07,4.14,1,5.7-.69,1-1.73,1.34-2,1.44-1.42.44-3.12.07-4.21-1.11-1.27-1.38-1.51-3.63-.27-5.21h.02,0Z" style=""/><path class="cls-13" d="M291.48,157.07c-.73.51-1.62.29-2.02-.38-.29-.47-.29-1.16-.02-1.73.54-.82,1.58-.87,2.13-.24.51.6.53,1.67-.09,2.33v.02h0Z" style="fill: rgb(38, 12, 9);"/><path class="cls-13" d="M263.85,158.18c-.84.49-1.85.27-2.31-.36-.33-.47-.33-1.13-.04-1.69.62-.8,1.8-.84,2.43-.22.58.58.6,1.63-.09,2.27h.01Z" style="fill: rgb(38, 12, 9);"/><g><path class="cls-3" d="M294.66,143.7c2.03-.33,1.8,3.74,1.6,5.26-.13,1.01-.96.7-1.07,1.17-.25,1.12.8,3.25-1.05,2.92.04-.54-.05-1.1,0-1.64.24-2.54.85-5,.53-7.67v-.02h-.01Z" style=""/><g><path class="cls-3" d="M222.2,188.99l16.17,4.69c-.27.24-.67.62-1,1.22-.29.51-.4.98-.47,1.31.31.65.85,1.98.27,2.85-.84,1.25-3.43.74-5.14.42-1.94-.38-5-1.27-8.43-3.74-1.2-.93-2.4-1.83-3.6-2.76-.27-1.05-1.09-4.43-.09-4.96.73-.38,2.33.85,2.29.94-.02.05-.93.11-1.05-.35-.58-2.13-.49-7.7-1.05-10.25-.09-.42-.94-.13-1.07-1.11-.44-3.45.98-6.47,1.09-10.19l2.09,21.89v.04h0Z" style=""/><g><path class="cls-8" d="M260.64,108.46c2.56,1.89,3.63,4.27,4.07,5.21,2.94,6.47,1.14,15.93-4.74,19.76-1.38.89-2.72,1.31-3.63,1.53,1.09-.27,2.74-.85,4.4-2.16,1.71-1.36,2.6-2.83,3.05-3.62.71-1.24,1.07-2.27,1.29-2.94.36-1.14.82-2.56.78-4.43-.04-1.13-.24-2.05-.42-2.67-.15-.56-.42-1.36-.89-2.23-.13-.25-.71-1.27-2.18-2.72-.35-.35-1.71-1.69-3.2-2.56-2.8-1.63-7.03-2.18-10.9-.64-3.71,1.47-5.56,4.27-6.1,5.1-1.53,2.36-1.89,4.6-1.96,5.18-.09.65-.27,2.29.16,4.32,0,0,.6,2.83,2.29,4.98.49.62.96,1.04.96,1.04.27.24.53.42.89.69.4.29.73.49.84.58,0,0,.69.45,1.33.8,1.22.64,2.49.98,2.91,1.09,1.71.44,3.14.49,3.91.47,1.14,0,2.13-.16,2.83-.31-1.09.24-2,.31-2.65.33-.56.02-2.6.05-5.14-.73-.85-.27-1.47-.53-1.6-.58-1.16-.51-4.67-2.22-6.88-6.12-.2-.36-.69-1.13-.98-2.14-1.71-6.1-.42-12.32,3.38-15.84,3.11-2.87,7.61-3.72,7.88-3.76,2.2-.36,3.83-.18,4.18-.15,2.94.38,5.03,1.71,6.1,2.51l.04.02h-.02Z" style=""/><g><path class="cls-13" d="M212.3,204.1c.89.67,1.14,1.29,1.18,1.74.05.6-.22,1.18.11,1.96.09.22.2.36.27.47-.11.4-.27,1.09-.36,1.98-.24,2.63.53,4.72,2.82,10.26.85,2.03,1.27,3.05,1.62,3.85,1.18,2.67,2.27,5.4,3.47,8.07.64,1.38,1,2.14.96,3.29-.04,1.58-.78,2.76-1.38,3.71-1.11,1.74-1.49,2.13-3.89,3.72-.84.56-.98.85-2.22.58,1.89-1.56,3.47-3.76,5.72-4.74-3.62-9.34-7.21-18.66-10.83-27.99-.16-1.13.04-1.89.25-2.38.53-1.2,1.44-1.53,1.96-2.89.25-.65.29-1.24.29-1.62l.02-.02h0Z" style=""/><g><path class="cls-3" d="M244.09,159.27c-.91-2.09-1.34-3.76-1.85-5.4-.56-1.82-1.02-3.65-1.29-5.56l-5.72,2.09c-2.51-7.12,14.08-9.81,15.62-6.52-.56.27-1.13.56-1.71.85-1.45.76-2.82,1.56-4.05,2.34-.18,3.78,1.58,6.88,3.16,10.08,4.25,8.65,10.74,14.19,21,10.3.8-.31,3.63-1.38,6.41-4,1.16-1.09,2.83-2.69,3.92-5.36.58-1.42.8-2.67.91-3.54.05-.2.13-.49.11-.87-.04-.74-.36-1.18-.22-1.29.15-.11.51.29,1.2.51.44.13.84.13,1.09.11.51.33,1.02.67,1.54,1-.02,1.11-.16,2.82-.89,4.72-.96,2.56-2.63,4.63-2.2,5.03.05.04.13.13,1.05-.11.35-.09.87-.2,1.51-.27-.69.35-1.4.69-2.09,1.04-.24.24.24,3.85,0,4.85-.09.35-.78.36-.85.54-.24.6-.09,1.34-.36,1.74-.8,1.24-1.76.98-2.78,1.4-.82.33-.42.42-2.25.87.36-1.14,7.85-4.61,3.4-7.81-4.25,4.23-9.83,6.67-15.9,6.25.8.65,2.87,2.2,5.96,2.53,3.76.4,6.54-1.27,7.32-1.8.16.07.93.4,1.25,1.24.33.82.09,1.78-.58,2.47.09,1.53.36,2.72.58,3.51.31,1.07.49,1.25,1.04,2.98.49,1.53.74,2.31.82,3.22.11,1.36-.15,2.43-.25,2.87-.45,1.71-1.34,2.89-1.93,3.54-.94-3.09-1.87-6.3-2.72-9.61-.33-1.25-.64-2.49-.94-3.72-.45.2-1.13.45-1.98.62-4.21.84-7.81-1.36-8.88-2.09-1.76-1.2-1.24-1.45-3.74-3.52-2.36-1.94-3.72-2.43-5.56-3.67-1.74-1.18-4.07-3.12-6.34-6.45-1.27-1.94-2.16-3.72-2.78-5.14l-.02.04h-.01Z" style=""/><g/><g><path class="cls-14" d="M 245.14 49.27 C 248.94 51 251.06 54.81 251.92 58.66 C 252.14 59.64 252.37 60.06 252.45 61.26 C 252.92 69.62 248.51 78.25 249.33 86.8 C 254.43 85.06 259.27 84.38 264.59 85.36 C 265.63 85.54 265.68 85.74 266.52 85.89 C 267.23 86.02 268.95 86.29 270.68 85.64 C 271.86 85.2 272.61 84.5 273.15 83.95 C 276.6 80.59 278.75 77.72 278.75 77.72 C 279.86 76.25 281.62 73.94 283.95 71 C 284.91 69.18 287.42 65.1 292.36 62.52 C 293.83 61.76 297.06 60.1 301.41 60.36 C 303.26 60.47 304.79 60.89 305.82 61.25 C 307.11 61.87 308.91 62.9 310.69 64.57 C 316.56 70.15 316.98 77.98 317.12 80.72 C 317.96 96.45 305.24 106.92 304.33 107.64 C 299.95 111.13 295.57 112.78 292.74 113.62 L 293.99 126.32 C 298.22 128.19 301.93 130.75 304.16 134.93 C 312.64 150.81 299.55 169.01 286.07 176.98 C 285.69 177.78 286.78 183.74 287.25 184.66 C 287.94 186 289.52 185.93 290.77 186.86 C 294.2 189.39 295.4 195.38 295.71 199.38 C 309.5 192.86 324.56 192.97 337.27 201.92 C 339.27 200.7 343.25 198.69 348.62 198.34 C 355.32 197.9 360.21 200.32 361.39 200.94 C 365.4 203.03 367.89 205.79 369.2 207.48 C 372.49 205.37 378.54 202.32 385.89 203.03 C 399.28 204.3 409.32 217.09 410.9 228.04 C 411.14 229.64 411.21 231.35 411.44 232.96 L 411.44 311.44 C 411.09 311.55 409.41 314.73 409.39 315.33 C 409.3 317.46 412.28 325.9 412.84 329.05 C 417.67 356.52 410.48 387.49 385.88 403.19 C 368.46 414.31 343.23 415.62 324.37 407.37 C 319.57 405.26 314.98 402.16 314.98 402.16 C 309.64 398.69 305.61 395.11 302.81 392.35 C 290.18 406.81 271.8 415.22 252.44 414.68 C 251.75 414.66 251.04 414.72 250.35 414.68 C 232.6 413.54 215.89 404.92 204.72 391.23 C 202.52 393.54 199.31 396.63 195.06 399.77 C 190.16 403.4 177.62 412.43 159.33 414.08 C 134.77 416.3 116.22 403.69 110.14 397.98 C 106.83 394.89 104.45 391.48 104.45 391.48 C 100.6 385.94 98.84 380.34 97.69 374.8 C 94.98 361.77 96.07 351 96.06 350.55 C 95.64 313.91 96.37 277.21 96.06 240.56 C 95.22 223.97 106.25 206.52 121.07 199.38 C 123.94 198 126.81 196.78 126.81 196.78 C 128.64 196.11 130.23 195.69 131.39 195.42 C 132.37 195.22 133.86 194.95 135.68 194.69 C 143.65 193.58 157.12 193.25 169.4 198.23 C 174.25 200.19 181.32 204.57 181.32 204.57 C 181.32 204.57 184.63 202.63 186.64 201.95 C 188.47 201.35 191.25 201.13 195.31 202.91 C 197.4 200.46 198.94 197.1 202.3 196.15 C 202.34 189.3 203.55 183.22 209.57 179.24 C 206.79 154.59 207.03 128.87 215.44 105.32 C 214.13 104.56 211.81 102.98 209.94 100.12 C 207.65 96.65 207.29 93.25 207.22 91.71 C 207.29 88.86 207.55 85.64 208.11 82.15 C 208.78 77.95 209.73 74.25 210.74 71.11 C 211.7 67.8 213.45 63.53 216.68 59.3 C 218.55 56.85 221.28 53.34 226.18 50.73 C 226.18 50.73 232.28 47.48 238.68 47.73 C 240.77 47.82 242.66 48.11 245.15 49.24 L 245.17 49.28 L 245.14 49.28 L 245.14 49.27 Z M 235.98 75.6 C 236.56 74.58 237.03 73.67 237.4 72.93 C 238 71.73 238.4 70.8 238.56 70.39 C 238.83 69.75 238.98 69.37 239.09 69.06 C 239.34 68.37 239.56 67.79 239.71 66.97 C 239.89 66.12 240 65.48 239.82 64.68 C 239.73 64.26 239.57 63.95 239.46 63.74 C 239.39 63.61 239.24 63.41 239.02 63.23 C 238.6 62.9 238.15 62.85 237.88 62.83 C 237.23 62.78 236.74 62.98 236.05 63.23 C 235.58 63.41 235.27 63.59 234.89 63.79 C 234.27 64.14 233.82 64.43 233.42 64.7 C 233.09 64.92 232.69 65.21 232.22 65.57 L 230.95 66.61 L 229.66 67.79 C 229.26 68.21 228.86 68.64 228.46 69.06 C 227.17 70.68 225.55 73.07 224.32 76.27 C 223.39 78.69 222.94 80.88 222.72 82.61 C 222.68 83.14 222.63 83.94 222.56 84.92 C 222.41 86.9 222.41 86.86 222.38 87.37 C 222.34 88.22 222.31 89.44 222.47 90.99 C 222.52 91.53 222.6 92.17 222.8 93.01 C 223 93.88 223.22 94.39 223.93 96.24 C 224.13 96.75 224.46 97.62 224.89 98.77 C 225.09 99.21 225.29 99.64 225.49 100.08 C 225.82 100.66 226.05 101.13 226.2 101.46 C 226.42 101.95 226.42 102.04 226.58 102.31 C 227.03 103.07 227.54 103.33 227.49 103.45 C 227.44 103.58 226.95 103.56 224.96 102.94 L 223.51 102.94 L 223.24 103.96 C 224.11 103.74 224.29 105.01 224.62 105.03 C 225.09 105.08 227.56 103.79 226.87 105.25 C 226.65 105.74 225.65 106.1 225.42 106.92 C 225.04 108.21 225.46 109.88 225.31 111.24 L 222.19 111.24 C 221.26 113.35 223.19 114.46 223.28 115.11 C 223.46 116.47 223.08 118.16 223.24 119.58 L 220.12 119.58 C 220.66 122.61 221.56 124.99 221.19 128.21 C 220.37 135.51 218.97 142.54 219.06 150.08 C 219.06 150.97 218.73 152.41 219.59 152.93 C 219.55 155 219.59 157.11 219.59 159.18 C 219.72 160.69 219.84 162.21 219.97 163.72 L 220.1 166.48 L 220.1 167.01 C 220.1 170.31 220.32 172.22 220.5 175.7 C 220.56 176.94 220.6 177.68 220.63 178.76 C 220.63 178.76 220.75 183.82 221.14 186.36 C 221.19 186.66 221.29 187.3 221.65 188.02 C 221.85 188.42 222.06 188.72 222.19 188.9 C 222.28 189.05 222.03 189.72 222.24 190.03 C 224.02 192.52 224.78 191.03 227.04 191.52 C 227.46 191.61 227.17 192.46 228.15 192.59 C 229.51 192.77 231.2 192.39 232.62 192.55 L 231.84 193.6 L 221.16 193.6 L 223.59 195.67 C 226.99 195.65 230.66 198.12 233.49 198.79 C 234.47 199.03 235.74 198.68 236.78 198.79 C 236.78 197.25 235.07 197.79 235.74 195.67 C 235.58 195.49 231.71 195.78 230.78 195.67 C 230.02 195.58 229.16 195.27 230.02 194.63 C 231.06 194.5 232.33 194.85 233.31 194.63 C 233.62 194.56 233.55 194.09 233.87 193.78 C 234.07 193.6 234.36 193.69 234.41 193.56 C 234.46 193.4 234.14 193.21 234.16 193.14 C 234.29 192.56 239.92 193.83 239.92 193.83 C 239.92 193.83 246.39 195.28 257.74 195.85 C 262.26 196.07 268.77 195.65 276.94 192.56 C 276.81 192.07 276.67 191.54 276.61 190.96 C 276.56 190.42 276.52 189.87 276.41 189.43 C 279.32 189.18 276.45 187.16 276.41 187 C 276.06 185.38 275.47 183.78 275.37 183.35 C 275.17 182.44 275.52 181.39 275.33 180.43 C 275.04 178.85 271.46 178.81 270.13 179.01 C 269.59 177.23 272.07 178.19 272.22 176.92 L 262.83 176.92 L 262.83 174.83 C 264.03 174.96 265.54 174.58 266.64 174.83 C 267.06 174.92 266.79 175.77 267.75 175.9 C 270.04 176.19 272.96 175.59 275.34 175.86 C 275.45 175.24 275.18 174.28 275.34 173.77 C 276.87 173.41 276.87 173.28 277.27 173.06 C 277.45 172.97 277.58 172.91 277.6 172.91 C 277.82 172.82 279.33 171.93 280.4 169.75 C 280.98 168.55 281.16 167.53 281.27 166.92 C 281.47 165.68 281.45 164.61 281.38 163.87 C 282.16 163.71 282.92 163.52 283.71 163.36 C 285.71 162.94 288.81 161.92 291.01 159.18 C 291.43 158.65 291.72 158.2 291.9 157.89 C 292.81 156.4 294.06 153.77 294.33 149.77 C 294.57 149.46 294.84 149.04 295.09 148.48 C 295.16 148.32 295.42 147.72 295.56 146.77 C 295.71 145.86 295.92 144.52 295.32 144.14 C 295.08 143.98 294.78 144.05 294.65 144.07 C 294.27 144.12 290.78 149.23 289.78 150.14 C 288.8 151.05 284.35 153.66 284.22 153.97 C 283.28 154.02 282.51 154.01 281.97 153.97 C 281.61 153.95 281.23 153.92 280.93 153.64 C 280.69 153.42 280.6 153.13 280.55 152.95 C 280.02 152.95 279.55 152.91 279.11 152.82 C 278.47 152.67 278.02 152.46 277.78 152.33 C 271.97 149.35 269.79 146.86 269.79 146.86 C 268.77 145.7 268.14 144.7 267.74 144.04 C 266.47 141.99 265.83 140.24 265.58 139.52 C 264.56 136.54 264.09 135.09 264.71 133.78 C 265.25 132.64 266.6 131.84 269.12 131.04 C 269.56 130.89 270.75 130.6 271.21 130.51 C 274.84 129.84 278.06 130.13 281.67 129.77 C 282.41 129.24 282.31 121.3 282.11 119.87 C 281.17 113.18 272.75 110.75 269.12 116.96 C 269.27 115.98 268.92 114.87 269.17 113.89 L 272.24 113.31 L 271.2 110.19 C 273.07 109.83 276.07 111.19 276.67 109.14 C 276.93 108.96 277.04 108.82 277.02 108.71 C 276.95 108.39 275.77 108.33 273.48 108.51 C 274.59 108.19 276.64 107.82 278.7 108.71 C 279 108.84 279.28 108.99 279.54 109.15 C 280.05 108.73 280.61 108.13 280.5 107.55 C 280.43 107.22 280.19 107.1 279.85 106.77 C 279.85 106.77 278.98 105.93 278.52 104.61 C 278.23 103.77 278.03 102.28 278.63 101.9 C 279.21 101.54 280.5 102.25 281.75 103.66 C 282.06 104.19 282.22 104.66 282.33 105 C 282.49 105.51 282.51 105.82 282.77 105.94 C 282.84 105.98 282.95 106.01 283.64 105.87 C 284.09 105.76 284.46 105.65 284.55 105.63 C 285.02 105.48 285.46 105.34 285.8 105.23 C 287.42 104.65 289.12 103.65 289.12 103.65 C 294.15 100.73 297.82 96.51 297.82 96.51 C 298.69 95.51 299.36 94.73 300.15 93.49 C 300.69 92.64 302.28 89.97 303.02 85.84 C 303.53 82.97 304.18 79.26 302.2 76.85 C 301.87 76.47 301.16 75.63 300.22 75.63 C 299.13 75.63 298.22 76.76 297.26 77.86 L 295.93 79.68 C 295.48 80.41 295.08 81.02 294.77 81.48 C 294.08 82.52 293.73 83.04 293.24 83.64 C 292.91 84.04 292.57 84.46 292.31 84.75 C 291.95 85.19 291.62 85.53 291.38 85.79 C 291 86.21 290.62 86.61 290.24 87.03 L 289.26 88.01 C 288.79 88.45 288.32 88.88 287.84 89.34 C 287.6 89.58 287.28 89.87 286.88 90.21 C 286.66 90.41 286.08 90.92 285.17 91.63 C 283.97 92.59 283.01 93.28 282.32 93.77 C 281.34 94.46 280.61 94.95 280.41 95.1 C 279.85 95.48 279.36 95.79 278.96 96.04 C 278.65 96.22 278.34 96.42 278.03 96.6 L 277.47 96.98 C 277.6 97.38 277.72 97.76 277.85 98.16 C 274.94 101.25 273.42 101.58 272.56 101.27 C 272.12 101.11 271.83 100.76 270.51 100.14 C 269.49 99.67 268.69 99.38 268.69 99.38 C 267.51 98.96 267.02 98.93 267 98.73 C 266.96 98.29 269.13 97.86 269.11 97.71 C 269.09 97.6 268 97.86 266.57 97.84 C 265.88 97.84 265.32 97.77 264.95 97.71 C 265.82 97.02 266.68 96.33 267.55 95.64 C 265.66 95.91 262.85 95.24 261.14 95.64 C 260.74 95.73 260.83 96.58 260.43 96.66 C 257.27 97.35 250.97 98.35 248.44 99.97 C 247.04 100.86 245.95 103.59 243.43 102.91 C 243.03 102.8 243.23 101.38 241.3 101.87 C 240.81 102 240.79 102.72 240.76 102.94 C 240.61 103.76 240.2 104.94 238.91 106.57 C 238.73 106.22 238.49 105.7 238.38 105.03 C 238.2 103.96 238.45 103.1 238.58 102.65 C 239.52 99.42 240.65 97.04 240.36 96.87 C 240.27 96.82 240.12 96.98 239.45 97.54 C 238.8 98.08 238.25 98.48 237.89 98.76 C 237.65 96.98 237.54 95.45 237.49 94.25 C 237.49 94.25 237.36 91.54 237.69 86.38 C 237.76 85.34 237.78 84.84 237.93 84.36 C 238 84.12 238.09 83.87 238.04 83.83 C 237.93 83.76 237.42 84.43 237 84.99 C 236.53 85.61 236.18 86.13 235.73 86.81 C 235.48 87.19 235.15 87.7 234.75 88.32 C 234.4 89.05 234.06 89.85 233.73 90.72 C 232.99 92.74 232.57 94.61 232.33 96.21 C 232.26 98.99 232.11 101.02 232.04 101.84 C 232.04 101.84 231.95 102.88 231.5 103.93 C 231.46 104 231.41 104.11 231.39 104.13 C 231.26 104.35 231.19 104.46 231.08 104.48 C 230.97 104.48 230.86 104.39 230.73 104.26 C 230.62 104.15 230.55 104.04 230.53 104.01 C 230.42 103.81 230.42 103.7 230.33 103.43 C 230.26 103.23 230.22 103.18 230.13 102.99 C 229.98 102.66 229.95 102.41 229.89 102.1 C 229.73 101.21 229.64 100.9 229.58 100.47 C 229.36 99 229.54 96.64 229.69 95.13 C 229.89 93.02 229.98 91.97 230.18 90.88 C 230.43 89.57 230.69 88.63 231.14 87.05 C 231.39 86.14 231.74 84.98 232.28 83.47 C 232.61 82.56 232.88 81.82 233.35 80.84 C 233.9 79.7 234.38 78.86 234.6 78.46 C 234.97 77.81 235.46 76.86 235.99 75.6 L 235.98 75.6 Z M 213.86 197.84 C 213.46 202.11 213.48 204.05 213.86 208.27 C 213.32 209.21 212.97 209.67 212.81 209.6 C 212.66 209.55 212.7 209.09 212.86 208.24 L 212.28 204.1 C 206.47 204.26 206.67 210.15 206.83 214.53 C 203.14 218.02 198.51 220.82 195.71 225.1 L 204.99 250.5 C 205.57 250.57 206.03 250.52 206.55 250.25 C 208.06 249.47 213.22 245.13 214.89 243.73 C 216.13 244.02 216.27 243.71 217.11 243.15 C 217.33 243 220.91 239.68 221 239.43 C 221.35 238.47 220.98 237.63 221.16 236.78 C 221.27 236.29 222.36 236.63 222.23 235.67 C 221.92 233.53 219.41 233.54 219.16 233.22 C 218.62 232.51 218.23 229.41 218.02 228.46 C 217.93 228.06 217.08 228.13 216.98 227.75 C 216.74 226.7 217.16 225.42 216.94 224.32 C 216.85 223.88 215 222.98 214.89 222.52 C 214.45 220.52 213.67 216.25 212.64 214.69 C 212.48 214.45 211.84 214.58 211.79 214.51 C 210.99 213.42 212.7 213.58 212.81 213.17 C 212.97 212.5 212.5 211.97 212.81 210.74 C 212.85 210.61 212.96 210.32 213.21 209.74 C 213.46 209.12 213.7 208.63 213.85 208.29 C 218.48 210.72 224.79 213.47 232.6 215.36 C 240.61 217.3 252.02 217.71 252.99 217.69 C 263.2 217.09 271 216.04 274.92 215.16 C 276.39 214.83 278.86 214.29 281.86 212.91 C 283.35 212.24 284.53 211.55 285.33 211.06 C 284.86 207.32 284.57 203.39 283.73 199.72 C 283.6 199.19 283.38 198.72 283.38 198.72 C 283.31 198.54 283.23 198.39 283.18 198.27 C 275.53 200.01 262.18 202.5 247.27 202.05 C 247.27 202.05 232.08 201.6 222.26 197.87 C 219.97 197 217.97 196.2 217.97 196.2 C 216.24 195.49 213.92 194.51 213.92 194.51 C 213.94 194.9 213.96 195.32 213.96 195.75 C 213.96 196.5 213.93 197.2 213.87 197.85 L 213.86 197.84 Z M 277.49 97.03 C 279.16 95.92 280.85 94.83 282.52 93.72" style="stroke-linecap: square;"/><path class="cls-10" d="M145.43,311.61c6.07-1.02,15.44,1.47,20.82,4.47,24.85,13.88,17.24,46.47-10.59,49.03-6.54.6-14.57.69-15.33-7.47-1.25-13.35.96-28.67.04-42.24.36-1.91,3.32-3.51,5.07-3.8h-.01Z" style=""/></g><g/></g></g><g><path class="cls-3" d="M223.43,94.99c.2.56.5,1.34.88,2.28.66,1.64.99,2.46,1.33,3.09,1.17,2.14,1.97,2.18,2.3,3.49.18.71.21,1.78-.53,3.29-4.41,11.83-6.41,24.69-7.28,37.28-.18,2.71-.47,6.07-.53,8.59-.98,1.2-1.65,1.35-2.07,1.28-2.83-.45-4.04-12.27-2.38-22.09.92-5.45,2.63-9.68,3.86-12.29.29-5.53.39-9.78.43-12.58.08-4.78.03-8.69,2.76-11.36.47-.46.92-.79,1.23-.99h0Z" style="fill: rgb(20, 8, 12);"/><path class="cls-14" d="M297.26,77.94c-1.45,1.73-2.65,4.12-4.18,5.98-4.6,5.58-9.43,9.34-15.59,13.1,1.07,5.23,5.87.93,9.23-.16,1.87-.6,3.83-1.27,5.85-1.18-.56,2.69-10.74,6.94-10.83,8.07l.91,2.36c-.38.07-.84.22-1.24.54-.93.76-1.24,2.18-.85,3.62-.65.38-1.34.74-2.11,1.11-2.05.98-4,1.6-5.7,2-.58.33-1.56.96-2.34,1.93-.13.15-.24.33-.62.87-.31.42-.44.58-.62.91-.13.25-.22.47-.29.64-.05.13-.16.42-.25.78-.07.25-.13.47-.2.87-.13.64-.18.96-.24,1.4-.09.82-.09,1.45-.09,1.83v.58c0,.27.04.49.11,1.02.07.62.11.93.15,1.13.05.31.13.67.27,1.13.05.15.2.62.51,1.2.16.29.27.49.51.84.18.27.33.49.91,1.33.16.22.36.51.58.82-.42-.49-.76-.94-1.02-1.29-.44-.58-.74-1.04-1.09-1.69-.13-.24-.29-.58-.47-1.05-.2-.58-.29-1.05-.4-1.62-.04-.16-.09-.47-.15-.85-.04-.29-.07-.6-.11-1,0-.16-.02-.44,0-.78,0-.44.04-.76.09-1.22.04-.31.05-.54.11-.85.13-.84.29-1.47.4-1.82.13-.44.18-.65.25-.82.15-.33.25-.45.29-.74,0-.07,0-.16-.05-.54-.07-.42-.13-.71-.15-.82,0,0-.07-.36-.18-1.14-.02-.2-.24-1.58.24-2.67s1.36-1.63,2.27-2.2c.71-.44,2.14-1.29,4.21-1.33,2.02-.04,3.49.71,4.11,1.07.25-1.74-1.2-2.6-2.07-3.65-9.65-11.5-27.25-8.68-35.44,2.89-.35,0-1-.09-1.71-.49-.8-.44-1.24-1.05-1.42-1.36-1.96-3.63,1.56-6.47,1.56-9.9l-2.6,2.09c-.04-1.38.04-2.78,0-4.16s-.04-2.8,0-4.18c.35,1.74.69,3.47,1.05,5.21,1.33.82,3.14-2.05,4.16-1.04.18.18.2.35.29.53.69,1.31,4.34.62,6.38.31,4.47-.67,3.36.16,10.79-.62.89-.09,2.54-.27,4.76-.2,3.58.11,4.7.76,5.34,1.51s.45,1.25.96,1.6c.71.47,2.25.36,6.1-2.71,1.16-.54,2.02-1.11,2.56-1.49,1.69-1.22,1.93-1.93,3.67-2.94.69-.4.96-.47,1.54-.93.89-.71,1.45-1.49,1.8-2.05.16-.35.42-.87.82-1.45,1.25-1.89,2.65-2.67,4.16-3.92.89-.73,2.11-1.83,3.38-3.45.56-.29,1.13-.6,1.69-.89l-.02-.02.02-.05Z" style="fill: rgb(5, 3, 22);"/></g></g></g></g></g><g><path class="cls-17" d="M271.19,130.6c-1.09-1.31-1.85-2.38-2.34-3.6-.62-1.53-.71-2.89-.78-3.69-.07-1.04-.02-1.82,0-2.09.07-.96.31-2.45,1.04-4.18,3.63-6.21,12.04-3.78,12.99,2.91.2,1.42.31,9.37-.44,9.9-3.62.38-6.83.09-10.46.74h-.01ZM277.31,119.72c-4.05.78-2.69,6.98,1.85,5.56,3.23-1,1.36-6.18-1.85-5.56Z" style="fill: rgb(247, 247, 247);"/><path class="cls-17" d="M265.98,120.18c.38,2.58-.73,6.01-1.8,8.36-1.74,3.8-5.2,6.27-9.46,6.7-4.27.44-9.81-1.16-12.19-4.63-7.81-11.39,4.45-25.23,16.62-18.98,2.6,1.33,6.41,5.65,6.83,8.56h0ZM256.46,117.67c-3.74,1.09-1.96,8.94,2.78,7.5,4.74-1.44,3.16-9.23-2.78-7.5Z" style="fill: rgb(247, 247, 247);"/><g><ellipse style="stroke: rgb(0, 0, 0); fill-rule: nonzero; stroke-width: 0px; fill: rgb(133, 85, 221);" cx="254.179" cy="347.44" rx="30.039" ry="29.328"/><g><path class="cls-2" d="M 371.958 269.14 C 368.647 263.121 357.342 263.911 353.2 259.37 C 347.616 253.248 344.12 243.91 343.54 235.66 C 342.94 227.1 342.8 215.55 354.73 217.19 C 367.88 218.99 356.86 241.48 366.01 249.69 C 369.77 253.05 375.6 253.16 378.49 248.69 C 380.78 245.17 378.98 233.27 379.53 228.36 C 380.51 219.53 391.7 219.33 392.06 228.34 L 391.884 298.624 C 391.936 303.682 389.226 308.948 386.458 310.443 C 384.015 311.762 380.273 313.767 377.205 308.383 C 374.798 304.158 374.298 304.2 373.768 288.017 C 373.541 281.097 373.316 279.378 373.272 277.362 C 373.223 275.104 372.968 270.975 371.958 269.14 Z" style="fill: rgb(255, 255, 255);"/><path class="cls-15" d="M145.46,294.95c49.01-4.6,83.04,52.9,39.67,86.07-21.69,16.6-64.87,17.93-67.7-16.64-.93-11.23-.73-29.3,0-40.66,1.09-16.88,11.14-27.19,28.05-28.77h-.02ZM145.43,311.61c-1.74.29-4.7,1.89-5.07,3.8.94,13.57-1.29,28.88-.04,42.24.76,8.16,8.79,8.07,15.33,7.47,27.83-2.56,35.42-35.15,10.59-49.03-5.38-3-14.75-5.5-20.82-4.47h.01Z" style="fill: rgb(255, 255, 255);"/><path class="cls-2" d="M 190.91 224.3 C 190.91 224.3 190.89 233.86 190.84 237.41 C 190.77 241.42 190.66 246.46 190.69 253.27 C 190.73 258.9 190.74 261.75 191.05 262.79 C 192.79 268.86 199.13 276.03 208.16 276.69 C 217.12 277.34 225.65 271.35 228.36 262.21 L 228.36 224.34 C 228.155 218.676 244.624 217.734 245.04 224.34 L 245.04 271.61 C 245.04 275.86 241.93 283.85 239.52 287.47 C 224.46 310.07 185.95 307.11 176.36 281.38 C 173.94 274.91 174.2 262.29 174.11 254.95 C 173.98 244.05 173.248 235.129 174.65 224.34 C 175.646 216.681 191.509 217.263 190.91 224.3 Z" style="fill: rgb(255, 255, 255);"/><path class="cls-2" d="M 167.48 214.35 C 173.842 216.213 175.599 233.184 167.45 233.94 C 162.88 233.88 158.28 233.84 153.63 233.83 C 149.25 233.82 144.89 233.83 140.58 233.85 C 139.74 234.01 138.11 234.45 136.86 235.85 C 135.46 237.41 135.41 239.25 135.32 241.63 C 135.25 243.99 135.12 247.48 137.3 249.17 C 138.41 250.04 139.72 250.1 140.39 250.11 C 150.85 250.47 158.65 248.22 163.81 251.47 C 166.75 253.32 168.5 256.76 168.62 259.94 C 168.78 263.94 166.39 267.75 163.24 269.44 C 162.64 269.77 161.42 270.33 155.77 270.26 C 155.77 270.26 142.73 270.1 138.2 270.44 C 137.67 270.48 136.51 270.6 135.6 271.44 C 135.02 271.98 134.76 272.66 134.62 273.13 L 134.62 291.853 C 134.805 297.29 118.959 299.923 117.277 291.853 L 117.42 235.58 C 117.87 232.69 119.23 226.66 124.14 221.63 C 125.29 220.45 128.06 217.87 133.6 215.7 C 146.69 210.57 161.59 213.1 167.48 214.35 Z" style="fill: rgb(255, 255, 255);"/><path class="cls-15" d="M 275.37 216.09 C 283.04 219.05 291.77 227.23 292.52 236.65 C 293.63 250.67 276.15 255.92 270.41 281.77 C 270.03 283.51 269.77 284.97 269.63 285.93 L 289.43 285.93 C 297.018 286.613 294.333 302.767 289.43 302.1 L 255.28 302.1 C 253.32 301.19 250.36 299.47 248.36 296.25 C 244.18 289.55 247.05 281.06 249.29 274.76 C 251.82 267.62 254.18 265.39 258.86 257.12 C 261.62 252.23 265.29 245.06 268.71 235.72 C 268.87 235.18 268.8 234.81 268.71 234.56 C 267.44 231.25 254.98 236.05 250.16 230.67 C 248.51 228.82 248.38 226.47 248.34 225.89 C 248.09 221.02 252.45 217.73 252.99 217.33 C 254.92 216.33 257.95 215.02 261.85 214.5 C 262.29 214.45 268.9 213.61 275.33 216.08 L 275.37 216.08 L 275.37 216.09 Z" style="fill: rgb(255, 255, 255);"/><path d="M 394.242 346.505 C 394.242 370.948 374.427 390.763 349.984 390.763 C 325.541 390.763 305.726 370.948 305.726 346.505 C 305.726 322.062 325.541 302.247 349.984 302.247 C 374.427 302.247 394.242 322.062 394.242 346.505 Z M 349.984 320.377 C 337.713 320.377 327.766 330.245 327.766 342.417 C 327.766 354.589 337.713 364.457 349.984 364.457 C 362.255 364.457 372.202 354.589 372.202 342.417 C 372.202 330.245 362.255 320.377 349.984 320.377 Z" style="stroke: rgb(0, 0, 0); fill: rgb(255, 255, 255); stroke-width: 0px;"/><path d="M 299.149 348.105 C 299.149 372.548 279.334 392.363 254.891 392.363 C 230.448 392.363 210.633 372.548 210.633 348.105 C 210.633 323.662 230.448 303.847 254.891 303.847 C 279.334 303.847 299.149 323.662 299.149 348.105 Z M 254.891 321.977 C 242.62 321.977 232.673 331.845 232.673 344.017 C 232.673 356.189 242.62 366.057 254.891 366.057 C 267.162 366.057 277.109 356.189 277.109 344.017 C 277.109 331.845 267.162 321.977 254.891 321.977 Z" style="stroke: rgb(0, 0, 0); fill: rgb(255, 255, 255); stroke-opacity: 0.99; stroke-width: 0px;"/><path class="cls-12" d="M 274.544 339.379 C 274.904 340.509 274.164 342.229 272.764 343.009 C 271.654 343.629 270.314 343.569 269.344 343.029 C 268.634 342.629 268.604 342.209 267.414 340.669 C 267.414 340.669 266.524 339.509 265.364 338.309 C 264.784 337.709 263.544 336.439 261.844 335.459 C 261.374 335.189 259.224 333.989 256.154 333.809 C 256.154 333.809 251.884 333.539 247.814 335.969 C 246.434 336.809 244.964 338.019 244.744 338.199 C 244.164 338.689 243.584 339.179 242.894 339.939 C 242.094 340.809 242.114 340.979 241.514 341.539 C 240.784 342.229 240.064 342.919 238.984 343.009 C 238.824 343.009 237.444 343.119 236.534 342.099 C 235.774 341.249 235.734 339.989 236.024 339.139 C 236.134 338.849 236.424 338.399 237.024 337.509 C 237.204 337.239 237.444 336.889 237.734 336.489 C 237.974 336.179 238.294 335.749 239.174 334.799 C 240.174 333.689 240.684 333.149 241.284 332.639 C 241.754 332.239 242.134 331.969 242.704 331.569 C 243.194 331.219 243.814 330.789 244.644 330.319 C 245.174 330.009 245.934 329.609 246.864 329.209 C 247.314 329.009 248.774 328.429 250.824 327.989 C 252.264 327.699 254.634 327.209 257.694 327.549 C 261.294 327.949 263.834 329.289 265.324 330.089 C 266.194 330.559 268.014 331.619 269.814 333.229 C 271.064 334.359 271.924 335.409 272.394 336.009 C 273.104 336.919 273.534 337.639 273.994 338.369 C 274.344 338.929 274.504 339.219 274.534 339.349 L 274.554 339.369 L 274.544 339.369 L 274.544 339.379 Z" style=""/><path class="cls-1" d="M 262.044 342.379 C 265.004 344.759 266.734 349.339 265.184 351.479 C 265.054 351.659 264.474 352.419 263.514 352.589 C 261.514 352.939 260.684 350.169 257.724 349.029 C 254.804 347.889 251.744 349.099 251.424 349.249 C 249.554 350.049 247.624 353.139 245.614 352.849 C 244.634 352.699 243.884 351.909 243.564 351.219 C 242.564 349.109 244.494 345.519 248.524 342.389 C 249.524 341.719 251.814 340.389 254.974 340.299 C 256.064 340.259 259.294 340.169 262.044 342.389 L 262.064 342.389 L 262.044 342.389 L 262.044 342.379 Z" style=""/><rect x="250.16" y="354.07" width="8.828" height="48.663" style="stroke: rgb(0, 0, 0); stroke-width: 0px;" rx="5.031" ry="5.031"/><path class="cls-15" d="M 324.207 215.627 C 331.877 218.587 340.607 226.767 341.357 236.187 C 342.467 250.207 324.987 255.457 319.247 281.307 C 318.867 283.047 318.607 284.507 318.467 285.467 L 338.267 285.467 C 345.855 286.15 343.17 302.304 338.267 301.637 L 304.117 301.637 C 302.157 300.727 299.197 299.007 297.197 295.787 C 293.017 289.087 295.887 280.597 298.127 274.297 C 300.657 267.157 303.017 264.927 307.697 256.657 C 310.457 251.767 314.127 244.597 317.547 235.257 C 317.707 234.717 317.637 234.347 317.547 234.097 C 316.277 230.787 303.817 235.587 298.997 230.207 C 297.347 228.357 297.217 226.007 297.177 225.427 C 296.927 220.557 301.287 217.267 301.827 216.867 C 303.757 215.867 306.787 214.557 310.687 214.037 C 311.127 213.987 317.737 213.147 324.167 215.617 L 324.207 215.617 L 324.207 215.627 Z" style="fill: rgb(255, 255, 255);"/></g></g><path class="cls-17" d="M291.01,135.29c.27.18.6.47.54.71-.07.29-.69.4-1.2.45-4.38.45-14.66-1.44-15.37-1.58-.54-.11-1.87-.35-1.87-.69,0-.27.82-.51,1.4-.64,2-.38,4.87-.73,8.3-.38,3.51.36,6.3,1.31,8.19,2.11v.02h.01Z" style="fill: rgb(247, 247, 247);"/></g></g></g></svg>